/* XPM */
static char * aright_xpm[] = {
"58 38 2 1",
" 	c None",
".	c #00BC00",
"..                                                        ",
".....                                                     ",
"........                                                  ",
"............                                              ",
"...............                                           ",
"..................                                        ",
".....................                                     ",
"........................                                  ",
"...........................                               ",
"...............................                           ",
"..................................                        ",
".....................................                     ",
"........................................                  ",
"...........................................               ",
"..............................................            ",
"..................................................        ",
".....................................................     ",
"........................................................  ",
"..........................................................",
"......................................................... ",
".......................................................   ",
"....................................................      ",
"................................................          ",
".............................................             ",
"..........................................                ",
".......................................                   ",
"....................................                      ",
"................................                          ",
".............................                             ",
"..........................                                ",
".......................                                   ",
"...................                                       ",
"................                                          ",
".............                                             ",
"..........                                                ",
".......                                                   ",
"...                                                       ",
".                                                         "};
