/* XPM */
static char * green_tick_xpm[] = {
"50 49 70 1",
" 	c None",
".	c #007100",
"+	c #008A00",
"@	c #009300",
"#	c #009600",
"$	c #009500",
"%	c #008D00",
"&	c #009200",
"*	c #00AC00",
"=	c #00BF00",
"-	c #00BE00",
";	c #00BC00",
">	c #008C00",
",	c #008B00",
"'	c #00AD00",
")	c #00BB00",
"!	c #009C00",
"~	c #008800",
"{	c #00BA00",
"]	c #00B100",
"^	c #008200",
"/	c #00C000",
"(	c #00A800",
"_	c #00B900",
":	c #009F00",
"<	c #009000",
"[	c #009E00",
"}	c #007E00",
"|	c #00B600",
"1	c #00BD00",
"2	c #00A100",
"3	c #00AF00",
"4	c #00A700",
"5	c #00A400",
"6	c #00AE00",
"7	c #009700",
"8	c #00B800",
"9	c #008F00",
"0	c #009900",
"a	c #00A200",
"b	c #007A00",
"c	c #00B000",
"d	c #00A600",
"e	c #008300",
"f	c #00B200",
"g	c #00AB00",
"h	c #007400",
"i	c #008E00",
"j	c #009800",
"k	c #007300",
"l	c #009A00",
"m	c #006900",
"n	c #007000",
"o	c #008600",
"p	c #00A500",
"q	c #008900",
"r	c #007D00",
"s	c #009100",
"t	c #006800",
"u	c #00A300",
"v	c #00B500",
"w	c #007B00",
"x	c #007C00",
"y	c #009400",
"z	c #00B300",
"A	c #007900",
"B	c #00B400",
"C	c #00A900",
"D	c #006300",
"E	c #006F00",
"                                          .+@#$%  ",
"                                        &*=-----;>",
"                                      ,'-;))))));!",
"                                     ~{))))))));] ",
"                                    ^/)))))))))(  ",
"                                   +/))))))))_:   ",
"                                  <))))))))))[    ",
"                                 }|))))))))12     ",
"                                 3;)))))));4      ",
"                                4-)))))));4       ",
"                               51)))))));6        ",
"                              7{))))))))8}        ",
"                              ])))))))))9         ",
"                             51)))))))-0          ",
"                            #-)))))))-a           ",
"                           b;))))))))c            ",
"                           8)))))))){7            ",
"                          2{)))))))1d             ",
"                         e8)))))));f              ",
"                         g;)))))))=h              ",
"                        i=)))))));j               ",
"                       k-))))))))c                ",
"                       3;)))))))_@                ",
"                      l{))))))))]                 ",
"                      ')))))))){m                 ",
"                     7-)))))))=<                  ",
"                    n_)))))))1(                   ",
"                    *;))))))){o                   ",
"       h6>         ~-))))))))p                    ",
"      0;;6         |)))))))){o                    ",
"    qf))))[       [{)))))));5                     ",
"   5))))))19      '))))))))-                      ",
" r]1)))))))=<    s-)))))))-i                      ",
"t{;)))))))));u,  c;))))));c                       ",
" 0-))))))))));vc]1)))))))1i                       ",
"  4))))))))))))))))))))))g                        ",
"   f;))))))))))))))))))){[                        ",
"   wv;))))))))))))))))))8                         ",
"    x{)))))))))))))))))1y                         ",
"     +1))))))))))))))))1                          ",
"      2)))))))))))))))=,                          ",
"       ';))))))))))));z                           ",
"        )))))))))))))1#                           ",
"        A=)))))))))))B                            ",
"         j;))))))))))4                            ",
"          6)))))))))_7                            ",
"          q_))))))))8                             ",
"           C;))))));5                             ",
"           Du222222uE                             "};
