/* XPM */
static char * red_x_xpm[] = {
"50 50 2 1",
" 	c None",
".	c #F60000",
"               .                                  ",
"             ......                               ",
"            .........                      ....   ",
"            ..........                   .......  ",
"            ...........                .......... ",
"            ............              ........... ",
"            ............             .............",
"             ............          .............. ",
"             .............        ..............  ",
"             ..............      ..............   ",
"             ..............     ..............    ",
"              ..............   ..............     ",
"              ..............................      ",
"              .............................       ",
"               ...........................        ",
"               ..........................         ",
"                ........................          ",
"                ........................          ",
"                .......................           ",
"                ......................            ",
"                 ....................             ",
"                 ....................             ",
"                 ...................              ",
"                 ..................               ",
"                 ..................               ",
"                ..................                ",
"               ...................                ",
"             ....................                 ",
"            ......................                ",
"           .......................                ",
"          ........................                ",
"         ..........................               ",
"        ............................              ",
"       .............................              ",
"      ...............................             ",
"     ................................             ",
"    ..................................            ",
"   ..................   ...............           ",
"   ................      ...............          ",
"  ................        ..............          ",
" .................         .............          ",
".................           ...........           ",
" ...............             ..........           ",
" .............                ........            ",
"  ...........                   .....             ",
"   .........                     ....             ",
"    .......                       ..              ",
"     .....                                        ",
"      ...                                         ",
"       .                                          "};
